# xmcd
# 
# Track frame offsets:
#	150
#	17666
#	38304
#	56777
#	75593
#	90184
#	106498
#	125096
#	142789
#	162063
#
# Disc length: 2380 seconds
#
# Revision: 1
# Processed by: cddbd v1.4PL0 Copyright (c) Steve Scherf et al.
# Submitted via: Audio-CD-Archiv 2.10.438
#
DISCID=6b094a0a
DTITLE=Kenny Rogers - Eyes That See In The Dark
DYEAR=1900
DGENRE=blues
TTITLE0=This Woman
TTITLE1=You And I
TTITLE2=Buried Treasure
TTITLE3=Islands In The Stream
TTITLE4=Living With You
TTITLE5=Evening Star
TTITLE6=Hold Me
TTITLE7=Midsummer Nights
TTITLE8=I Will Always Love You
TTITLE9=Eyes That See In The Dark
EXTD=
EXTT0=
EXTT1=
EXTT2=
EXTT3=
EXTT4=
EXTT5=
EXTT6=
EXTT7=
EXTT8=
EXTT9=
PLAYORDER=
